<svg width="64" height="64" viewBox="0 0 64 64" fill="none" xmlns="http://www.w3.org/2000/svg">
  <g transform="translate(3, 3) scale(0.123)">
    <path d="M472.4,110.4c-0.9-4.4-3.7-8.2-7.7-10.3l-29.4-15.9c-2.7-1.4-4.8-3.8-5.9-6.6c-3.3-8.2-9.4-14.9-17.2-18.9l-20.1-9.2c1.8-8.4,2.8-18.5,1.5-29.8c-0.4-3.4-3-6-6.3-6.6c-3.3-0.5-6.6,1.3-8,4.3c-3.3,7.4-15,22.7-32,42.1c-7.9,8.9-15,18.7-21.3,29l-23.1,38c-8.7,14.3-22.3,24.9-38.3,29.9c-97.1,30.3-140.7,34.3-158.1,34c-5.8-0.1-11.4,0.9-16.6,2.8l-5.8-8c-2.4-3.4-7.1-4.1-10.5-1.7c-3.4,2.4-4.1,7.1-1.7,10.5l4.8,6.7c-2.1,1.8-4.1,3.7-6,5.9c-13.1,15.7-19.2,38.6-18.3,68.2c0.2,5.7-0.4,11.5-1.8,17.1c-3.8,15.8-12,36.7-44.6,72.7c-1.2,1.3-1.9,3.1-1.9,4.9c-0.5,19.8-2.6,52.1-3.8,69.6c-0.4,5.4,1.5,10.7,5.2,14.6c3.7,3.9,8.9,6.2,14.2,6.2h12.3c8.2,0,14.8-6.7,14.8-14.8c0-8.6-4.6-16.6-12.1-20.9l4.8-30.4c0.4-2.5,1.9-4.9,4-6.3l30.9-21.4c26.4-18.3,48.2-41.5,64.9-69c7.6-12.5,22.2-18.5,36.4-15l108.3,27l4.8,88c0.6,11.7,2.9,23.2,6.9,34.2l1.9,5.4c3.5,9.9,12.9,16.5,23.4,16.5h3.7c7.7,0,14.3-5.2,16.1-12.7c1.1-4.6,0.4-9.4-2.1-13.4c-0.6-1-1.4-1.9-2.5-2.8c-7.2-5.7-12-12.9-13.9-20.9l-0.1-0.5c-0.2-1-0.3-2.1-0.1-3.1l16-109.8c26.2-21.6,32.1-46.7,32.4-64.2c0.5-28.5,3.5-55.4,9-80.2c1.8-8.2,3.4-15.4,4.6-21.4c15.9,7.5,36.5,11.1,52.3,12.8c12.9,1.4,25.4-3.8,33.4-14C472.3,119.4,473.3,114.8,472.4,110.4z" fill="#e94560"/>
  </g>
</svg>
